<svg width="85" height="85" viewBox="0 0 85 85" fill="none" xmlns="http://www.w3.org/2000/svg">
<g clip-path="url(#clip0_13_36)">
<path fill-rule="evenodd" clip-rule="evenodd" d="M3.54167 0C1.58566 0 0 1.58566 0 3.54167C0 5.49768 1.58566 7.08333 3.54167 7.08333H14.8053L17.7507 21.7992C17.7664 21.9 17.7863 21.9994 17.8103 22.0972L23.7262 51.6546C24.2125 54.0992 25.5434 56.2981 27.485 57.8611C29.4178 59.417 31.8338 60.2472 34.3139 60.2083H68.6777C71.1578 60.2472 73.5739 59.417 75.5066 57.8611C77.4491 56.2975 78.7797 54.1004 79.2655 51.6546L79.2706 51.628L84.9373 21.9135C85.135 20.8766 84.86 19.8056 84.1872 18.9924C83.5143 18.1791 82.5138 17.7083 81.4583 17.7083H24.1557L21.1811 2.84659C20.8498 1.19136 19.3964 0 17.7083 0H3.54167ZM25.5734 24.7917H77.1774L72.3156 50.286C72.1518 51.0967 71.7094 51.8247 71.0649 52.3435C70.4174 52.8647 69.6073 53.1416 68.7762 53.1256L68.7083 53.125H34.2833L34.2155 53.1256C33.3844 53.1416 32.5742 52.8647 31.9268 52.3435C31.2793 51.8222 30.8357 51.0899 30.6738 50.2746L25.5734 24.7917Z" fill="#fff"/>
<path d="M24.7917 74.375C24.7917 70.463 27.963 67.2917 31.875 67.2917C35.787 67.2917 38.9583 70.463 38.9583 74.375C38.9583 78.287 35.787 81.4583 31.875 81.4583C27.963 81.4583 24.7917 78.287 24.7917 74.375Z" fill="#fff"/>
<path d="M63.75 74.375C63.75 70.463 66.9213 67.2917 70.8333 67.2917C74.7453 67.2917 77.9167 70.463 77.9167 74.375C77.9167 78.287 74.7453 81.4583 70.8333 81.4583C66.9213 81.4583 63.75 78.287 63.75 74.375Z" fill="#fff"/>
</g>
<defs>
<clipPath id="clip0_13_36">
<rect width="85" height="85" fill="white"/>
</clipPath>
</defs>
</svg>
